<svg xmlns="http://www.w3.org/2000/svg" viewBox="0 0 595.28 595.28"><defs><style>.cls-1{fill:#fff;}.cls-2,.cls-3{fill:none;}.cls-2{stroke:#ff34d1;stroke-linecap:round;stroke-linejoin:round;stroke-width:0;}</style></defs><title>logofear</title><g id="Calque_3" data-name="Calque 3"><circle class="cls-1" cx="297.64" cy="297.64" r="297.64"/><path class="cls-2" d="M317.78,130.45s0,0,0,0" transform="translate(0.02)"/><path class="cls-3" d="M190.22,276.33c0,.12-.06.25-.09.37,0-.12.06-.25.09-.37Z" transform="translate(0.02)"/><path class="cls-3" d="M314.16,274.23a28.06,28.06,0,0,0-17.53-6.13c-.58,0-1.15.05-1.73.09a28.13,28.13,0,1,0,19.26,6Z" transform="translate(0.02)"/><polygon class="cls-3" points="279.71 121.86 279.71 121.86 279.71 121.86 279.71 121.86"/><path class="cls-3" d="M320.62,458.72A163.55,163.55,0,0,0,460.4,307.54c-.05-4.36-2.38-5.17-5.06-5.23s-4.93,2-4.81,5.32A153.72,153.72,0,0,1,334.34,446q-6,1.5-12.23,2.5l-.37-.62h0a6.26,6.26,0,0,1-3.3,1,6.32,6.32,0,0,1-2.49-12.13c0-.08,0-.16,0-.24A140.54,140.54,0,0,0,437.79,305.74a3.71,3.71,0,0,0-3.33-3.43h-2.67c-1.48.26-3.39,1.25-4,5A131.1,131.1,0,0,1,321.92,425.53a8,8,0,0,1-3.71.87c-8.66.56-15.64,4-15.64,17.17C302.57,456,318.92,458.5,320.62,458.72Z" transform="translate(0.02)"/><path class="cls-3" d="M157.21,313.79s0,.08,0,.13,0-.08,0-.13Z" transform="translate(0.02)"/><path class="cls-3" d="M533.58,307.75c-5.59,0-14.08,1-16.19,16.29l.09-2A221.26,221.26,0,0,1,333.88,515.5q-7.64,1.26-15.39,2v-.08h0l-.28,0a6.32,6.32,0,0,1,0-12.65l.28,0h0v-.2q6.91-.7,13.69-1.82a208.75,208.75,0,0,0,172-177.35c0-.44,0-.91,0-1.41.46-18.68-8.12-19-15.64-19.64s-14.21,1.65-16.41,15.1h0a176.37,176.37,0,0,1-337.31,46,174.77,174.77,0,0,1-13.49-57.32l-.1.39S116.69,296,104.5,296c-11.42,0-14.81,8.62-15.19,14.94C95.8,409.67,171,489.63,267.47,503.52q6.94,1,14,1.53v.17h.13a6.32,6.32,0,0,1,0,12.65h-.13v0q-7.78-.55-15.45-1.63A221.18,221.18,0,0,1,76.47,310.59c0-.67-.09-1.33-.12-2,0,0-4.52-12.58-16.71-12.58S44.4,305.84,44.4,312.19C52.13,445.36,162.56,551,297.67,551c129.82,0,236.85-97.5,251.89-223.27,0-1,.12-2.18.21-3.68C550.9,306.32,539.16,307.75,533.58,307.75Zm4.26,32A244.07,244.07,0,0,1,72.78,392.13a241.59,241.59,0,0,1-17.51-66.39q-.83-7.14-1.25-14.35h.35a6,6,0,0,1-.09-.87,6.1,6.1,0,0,1,12.17-.71l.32-.11q.41,7.54,1.28,15c12.87,108.61,101,194.13,210.85,202.92,12.21.9,16.25-8.57,17.34-14.91s-2-16-18.17-17.73l0,0a198.74,198.74,0,0,1-177.46-169q-1-7.19-1.57-14.48h.3a6.09,6.09,0,1,1,12,0h.55q.51,6.58,1.45,13C126.58,414.16,203.92,483,297.36,483c88.8,0,163.06-62.22,181.6-145.44q1.62-7.27,2.65-14.75h.12a6.31,6.31,0,0,1,12.5,1.17,6.22,6.22,0,0,1-.08.75l.12,0q-1.06,7.6-2.71,15.08A198.56,198.56,0,0,1,320.84,494.43a12.51,12.51,0,0,1-2.63.4c-8.66.56-15.64,4-15.64,17.17s18.19,15.17,18.19,15.17C424,516.88,507.22,438.69,525.14,337.9q1.33-7.45,2.16-15.07h.11A6.28,6.28,0,0,1,539.86,324c0,.2,0,.39-.06.59l.19,0Q539.15,332.24,537.84,339.72Z" transform="translate(0.02)"/><path class="cls-3" d="M58.63,291.5c5.58,0,16.32-2,18.34-14.62.08-.89.15-1.79.24-2.68l0-.16c0-.14,0-.29.05-.43,0-.38,0-.75,0-1.14h.11A221.16,221.16,0,0,1,277.93,76.52c.26,0,.55-.09.89-.13,12.15-1.46,16.31-7.71,17.4-14.05s-2.4-16.2-18.6-18l0,0C156.2,53.85,58.81,148.79,45.52,269.09c-.13,1.14-.25,2.28-.36,3.43s-.2,2.3-.29,3.45C45.75,284.77,52.85,291.5,58.63,291.5ZM56.9,257A243.82,243.82,0,0,1,266.38,55.17c4.7-.6,9.46-.83,14.21-1.15,0,0,0,0,0,0a6.42,6.42,0,0,1,1.27-.13,6.23,6.23,0,1,1,0,12.46c-.14,0-.26,0-.39,0-4.64.32-9.25,1-13.81,1.62C166.75,81,86.27,159.05,69.6,258.76c-.73,4.35-1.32,8.74-1.8,13.17l-.5-.07a6,6,0,0,1,.06.61,6.1,6.1,0,0,1-12.19.47l-.35,0Q55.6,264.93,56.9,257Z" transform="translate(0.02)"/><path class="cls-2" d="M317.27,134.39s0,0,0,0" transform="translate(0.02)"/><polygon class="cls-3" points="279.71 121.86 279.71 121.86 279.71 121.86 279.71 121.86"/><path class="cls-3" d="M314.16,274.23a28.06,28.06,0,0,0-17.53-6.13c-.58,0-1.15.05-1.73.09a28.13,28.13,0,1,0,19.26,6Z" transform="translate(0.02)"/><path class="cls-3" d="M190.22,276.33c0,.12-.06.25-.09.37,0-.12.06-.25.09-.37Z" transform="translate(0.02)"/><path class="cls-3" d="M320.62,458.72A163.55,163.55,0,0,0,460.4,307.54c-.05-4.36-2.38-5.17-5.06-5.23s-4.93,2-4.81,5.32A153.72,153.72,0,0,1,334.34,446q-6,1.5-12.23,2.5l-.37-.62h0a6.26,6.26,0,0,1-3.3,1,6.32,6.32,0,0,1-2.49-12.13c0-.08,0-.16,0-.24A140.54,140.54,0,0,0,437.79,305.74a3.71,3.71,0,0,0-3.33-3.43h-2.67c-1.48.26-3.39,1.25-4,5A131.1,131.1,0,0,1,321.92,425.53a8,8,0,0,1-3.71.87c-8.66.56-15.64,4-15.64,17.17C302.57,456,318.92,458.5,320.62,458.72Z" transform="translate(0.02)"/><path class="cls-3" d="M58.63,291.5c5.58,0,16.32-2,18.34-14.62.08-.89.15-1.79.24-2.68l0-.16c0-.14,0-.29.05-.43,0-.38,0-.75,0-1.14h.11A221.16,221.16,0,0,1,277.93,76.52c.26,0,.55-.09.89-.13,12.15-1.46,16.31-7.71,17.4-14.05s-2.4-16.2-18.6-18l0,0C156.2,53.85,58.81,148.79,45.52,269.09c-.13,1.14-.25,2.28-.36,3.43s-.2,2.3-.29,3.45C45.75,284.77,52.85,291.5,58.63,291.5Z" transform="translate(0.02)"/><path class="cls-3" d="M533.58,307.75c-5.59,0-14.08,1-16.19,16.29l.09-2A221.26,221.26,0,0,1,333.88,515.5q-7.64,1.26-15.39,2v-.08h0l-.28,0a6.32,6.32,0,0,1,0-12.65l.28,0h0v-.2q6.91-.7,13.69-1.82a208.75,208.75,0,0,0,172-177.35c0-.44,0-.91,0-1.41.46-18.68-8.12-19-15.64-19.64s-14.21,1.65-16.41,15.1h0a176.37,176.37,0,0,1-337.31,46,174.77,174.77,0,0,1-13.49-57.32l-.1.39S116.69,296,104.5,296c-11.42,0-14.81,8.62-15.19,14.94C95.8,409.67,171,489.63,267.47,503.52q6.94,1,14,1.53v.17h.13a6.32,6.32,0,0,1,0,12.65h-.13v0q-7.78-.55-15.45-1.63A221.18,221.18,0,0,1,76.47,310.59c0-.67-.09-1.33-.12-2,0,0-4.52-12.58-16.71-12.58S44.4,305.84,44.4,312.19C52.13,445.36,162.56,551,297.67,551c129.82,0,236.85-97.5,251.89-223.27,0-1,.12-2.18.21-3.68C550.9,306.32,539.16,307.75,533.58,307.75Zm4.26,32A244.07,244.07,0,0,1,72.78,392.13a241.59,241.59,0,0,1-17.51-66.39q-.83-7.14-1.25-14.35h.35a6,6,0,0,1-.09-.87,6.1,6.1,0,0,1,12.17-.71l.32-.11q.41,7.54,1.28,15c12.87,108.61,101,194.13,210.85,202.92,12.21.9,16.25-8.57,17.34-14.91s-2-16-18.17-17.73l0,0a198.74,198.74,0,0,1-177.46-169q-1-7.19-1.57-14.48h.3a6.09,6.09,0,1,1,12,0h.55q.51,6.58,1.45,13C126.58,414.16,203.92,483,297.36,483c88.8,0,163.06-62.22,181.6-145.44q1.62-7.27,2.65-14.75h.12a6.31,6.31,0,0,1,12.5,1.17,6.22,6.22,0,0,1-.08.75l.12,0q-1.06,7.6-2.71,15.08A198.56,198.56,0,0,1,320.84,494.43a12.51,12.51,0,0,1-2.63.4c-8.66.56-15.64,4-15.64,17.17s18.19,15.17,18.19,15.17C424,516.88,507.22,438.69,525.14,337.9q1.33-7.45,2.16-15.07h.11A6.28,6.28,0,0,1,539.86,324c0,.2,0,.39-.06.59l.19,0Q539.15,332.24,537.84,339.72Z" transform="translate(0.02)"/><path class="cls-3" d="M190.22,276.33c0,.12-.06.25-.09.37,0-.12.06-.25.09-.37Z" transform="translate(0.02)"/><path class="cls-3" d="M320.62,458.72A163.55,163.55,0,0,0,460.4,307.54c-.05-4.36-2.38-5.17-5.06-5.23s-4.93,2-4.81,5.32A153.72,153.72,0,0,1,334.34,446q-6,1.5-12.23,2.5l-.37-.62h0a6.26,6.26,0,0,1-3.3,1,6.32,6.32,0,0,1-2.49-12.13c0-.08,0-.16,0-.24A140.54,140.54,0,0,0,437.79,305.74a3.71,3.71,0,0,0-3.33-3.43h-2.67c-1.48.26-3.39,1.25-4,5A131.1,131.1,0,0,1,321.92,425.53a8,8,0,0,1-3.71.87c-8.66.56-15.64,4-15.64,17.17C302.57,456,318.92,458.5,320.62,458.72Z" transform="translate(0.02)"/><path class="cls-3" d="M314.16,274.23a28.06,28.06,0,0,0-17.53-6.13c-.58,0-1.15.05-1.73.09a28.13,28.13,0,1,0,19.26,6Z" transform="translate(0.02)"/><polygon class="cls-3" points="279.71 121.86 279.71 121.86 279.71 121.86 279.71 121.86"/><path class="cls-3" d="M533.58,307.75c-5.59,0-14.08,1-16.19,16.29l.09-2A221.26,221.26,0,0,1,333.88,515.5q-7.64,1.26-15.39,2v-.08h0l-.28,0a6.32,6.32,0,0,1,0-12.65l.28,0h0v-.2q6.91-.7,13.69-1.82a208.75,208.75,0,0,0,172-177.35c0-.44,0-.91,0-1.41.46-18.68-8.12-19-15.64-19.64s-14.21,1.65-16.41,15.1h0a176.37,176.37,0,0,1-337.31,46,174.77,174.77,0,0,1-13.49-57.32l-.1.39S116.69,296,104.5,296c-11.42,0-14.81,8.62-15.19,14.94C95.8,409.67,171,489.63,267.47,503.52q6.94,1,14,1.53v.17h.13a6.32,6.32,0,0,1,0,12.65h-.13v0q-7.78-.55-15.45-1.63A221.18,221.18,0,0,1,76.47,310.59c0-.67-.09-1.33-.12-2,0,0-4.52-12.58-16.71-12.58S44.4,305.84,44.4,312.19C52.13,445.36,162.56,551,297.67,551c129.82,0,236.85-97.5,251.89-223.27,0-1,.12-2.18.21-3.68C550.9,306.32,539.16,307.75,533.58,307.75Zm4.26,32A244.07,244.07,0,0,1,72.78,392.13a241.59,241.59,0,0,1-17.51-66.39q-.83-7.14-1.25-14.35h.35a6,6,0,0,1-.09-.87,6.1,6.1,0,0,1,12.17-.71l.32-.11q.41,7.54,1.28,15c12.87,108.61,101,194.13,210.85,202.92,12.21.9,16.25-8.57,17.34-14.91s-2-16-18.17-17.73l0,0a198.74,198.74,0,0,1-177.46-169q-1-7.19-1.57-14.48h.3a6.09,6.09,0,1,1,12,0h.55q.51,6.58,1.45,13C126.58,414.16,203.92,483,297.36,483c88.8,0,163.06-62.22,181.6-145.44q1.62-7.27,2.65-14.75h.12a6.31,6.31,0,0,1,12.5,1.17,6.22,6.22,0,0,1-.08.75l.12,0q-1.06,7.6-2.71,15.08A198.56,198.56,0,0,1,320.84,494.43a12.51,12.51,0,0,1-2.63.4c-8.66.56-15.64,4-15.64,17.17s18.19,15.17,18.19,15.17C424,516.88,507.22,438.69,525.14,337.9q1.33-7.45,2.16-15.07h.11A6.28,6.28,0,0,1,539.86,324c0,.2,0,.39-.06.59l.19,0Q539.15,332.24,537.84,339.72Z" transform="translate(0.02)"/><path class="cls-3" d="M58.63,291.5c5.58,0,16.32-2,18.34-14.62.08-.89.15-1.79.24-2.68l0-.16c0-.14,0-.29.05-.43,0-.38,0-.75,0-1.14h.11A221.16,221.16,0,0,1,277.93,76.52c.26,0,.55-.09.89-.13,12.15-1.46,16.31-7.71,17.4-14.05s-2.4-16.2-18.6-18l0,0C156.2,53.85,58.81,148.79,45.52,269.09c-.13,1.14-.25,2.28-.36,3.43s-.2,2.3-.29,3.45C45.75,284.77,52.85,291.5,58.63,291.5Z" transform="translate(0.02)"/><path d="M539.86,324a6.28,6.28,0,0,0-12.46-1.19h-.11q-.84,7.61-2.16,15.07C507.22,438.69,424,516.88,320.77,527.17c0,0-18.19-2-18.19-15.17s7-16.62,15.64-17.17a12.51,12.51,0,0,0,2.63-.4A198.74,198.74,0,0,0,491.57,339.89q1.65-7.47,2.71-15.08l-.12,0a6.22,6.22,0,0,0,.08-.75,6.31,6.31,0,0,0-12.5-1.17h-.12q-1,7.47-2.65,14.75C460.42,420.81,386.16,483,297.36,483c-93.43,0-170.77-68.87-184-158.62q-1-6.44-1.45-13h-.55a6.09,6.09,0,1,0-12,0H99q.52,7.29,1.57,14.48A198.72,198.72,0,0,0,278,494.91l0,0c16.2,1.75,19.26,11.38,18.17,17.73s-5.13,15.82-17.34,14.91c-109.81-8.78-198-94.3-210.85-202.92q-.88-7.41-1.28-15l-.32.11a6.1,6.1,0,0,0-12.17.71,6,6,0,0,0,.09.87H54q.42,7.21,1.25,14.35A243.88,243.88,0,0,0,470.07,469.67a243.41,243.41,0,0,0,67.77-129.95q1.32-7.48,2.16-15.06l-.19,0C539.82,324.42,539.86,324.23,539.86,324Z" transform="translate(0.02)"/><path class="cls-3" d="M320.62,458.72A163.55,163.55,0,0,0,460.4,307.54c-.05-4.36-2.38-5.17-5.06-5.23s-4.93,2-4.81,5.32A153.72,153.72,0,0,1,334.34,446q-6,1.5-12.23,2.5l-.37-.62h0a6.26,6.26,0,0,1-3.3,1,6.32,6.32,0,0,1-2.49-12.13c0-.08,0-.16,0-.24A140.54,140.54,0,0,0,437.79,305.74a3.71,3.71,0,0,0-3.33-3.43h-2.67c-1.48.26-3.39,1.25-4,5A131.1,131.1,0,0,1,321.92,425.53a8,8,0,0,1-3.71.87c-8.66.56-15.64,4-15.64,17.17C302.57,456,318.92,458.5,320.62,458.72Z" transform="translate(0.02)"/><path class="cls-3" d="M314.16,274.23a28.06,28.06,0,0,0-17.53-6.13c-.58,0-1.15.05-1.73.09a28.13,28.13,0,1,0,19.26,6Z" transform="translate(0.02)"/><path class="cls-3" d="M190.22,276.33c0,.12-.06.25-.09.37,0-.12.06-.25.09-.37Z" transform="translate(0.02)"/><polygon class="cls-3" points="279.71 121.86 279.71 121.86 279.71 121.86 279.71 121.86"/><path class="cls-3" d="M533.58,307.75c-5.59,0-14.08,1-16.19,16.29l.09-2A221.26,221.26,0,0,1,333.88,515.5q-7.64,1.26-15.39,2v-.08h0l-.28,0a6.32,6.32,0,0,1,0-12.65l.28,0h0v-.2q6.91-.7,13.69-1.82a208.75,208.75,0,0,0,172-177.35c0-.44,0-.91,0-1.41.46-18.68-8.12-19-15.64-19.64s-14.21,1.65-16.41,15.1h0a176.37,176.37,0,0,1-337.31,46,174.77,174.77,0,0,1-13.49-57.32l-.1.39S116.69,296,104.5,296c-11.42,0-14.81,8.62-15.19,14.94C95.8,409.67,171,489.63,267.47,503.52q6.94,1,14,1.53v.17h.13a6.32,6.32,0,0,1,0,12.65h-.13v0q-7.78-.55-15.45-1.63A221.18,221.18,0,0,1,76.47,310.59c0-.67-.09-1.33-.12-2,0,0-4.52-12.58-16.71-12.58S44.4,305.84,44.4,312.19C52.13,445.36,162.56,551,297.67,551c129.82,0,236.85-97.5,251.89-223.27,0-1,.12-2.18.21-3.68C550.9,306.32,539.16,307.75,533.58,307.75Z" transform="translate(0.02)"/><path class="cls-3" d="M58.63,291.5c5.58,0,16.32-2,18.34-14.62.08-.89.15-1.79.24-2.68l0-.16c0-.14,0-.29.05-.43,0-.38,0-.75,0-1.14h.11A221.16,221.16,0,0,1,277.93,76.52c.26,0,.55-.09.89-.13,12.15-1.46,16.31-7.71,17.4-14.05s-2.4-16.2-18.6-18l0,0C156.2,53.85,58.81,148.79,45.52,269.09c-.13,1.14-.25,2.28-.36,3.43s-.2,2.3-.29,3.45C45.75,284.77,52.85,291.5,58.63,291.5ZM56.9,257A243.82,243.82,0,0,1,266.38,55.17c4.7-.6,9.46-.83,14.21-1.15,0,0,0,0,0,0a6.42,6.42,0,0,1,1.27-.13,6.23,6.23,0,1,1,0,12.46c-.14,0-.26,0-.39,0-4.64.32-9.25,1-13.81,1.62C166.75,81,86.27,159.05,69.6,258.76c-.73,4.35-1.32,8.74-1.8,13.17l-.5-.07a6,6,0,0,1,.06.61,6.1,6.1,0,0,1-12.19.47l-.35,0Q55.6,264.93,56.9,257Z" transform="translate(0.02)"/><path d="M61.23,278.59a6.13,6.13,0,0,0,6.12-6.12,6,6,0,0,0-.06-.61l.5.07c.48-4.43,1.07-8.82,1.8-13.17C86.27,159.05,166.75,81,267.65,67.93c4.57-.59,9.17-1.3,13.81-1.62.13,0,.26,0,.39,0a6.23,6.23,0,1,0,0-12.46,6.42,6.42,0,0,0-1.27.13s0,0,0,0c-4.75.32-9.51.55-14.21,1.15A243.81,243.81,0,0,0,56.9,257q-1.31,7.92-2.09,16l.35,0A6.11,6.11,0,0,0,61.23,278.59Z" transform="translate(0.02)"/><path d="M574,292.35H347.32c-7.92,0-9.51-1.71-10.74-5.27a40.81,40.81,0,0,0-5.41-12.85,41.32,41.32,0,0,0-9-10,40.92,40.92,0,0,0-60.41,10.47l-.09.07-.23.47c-.42.7-.82,1.4-1.2,2.12s-.67,1.4-1,2.1c-8.6,15.54-13.6,12-19.27,12s-12.57-6.46-13.69-15a73.28,73.28,0,0,1,125.89-28l.08,0a6.23,6.23,0,0,0,4.82,2.31A6.3,6.3,0,0,0,362,240.49h0l.13-.12c-1.4-1.63-2.84-3.22-4.37-4.75a87,87,0,0,0-6.89-6.17,85.86,85.86,0,0,0-20.47-12.28,84.42,84.42,0,0,0-10.06-3.5l0,0-.41-.08c-.8-.22-1.61-.43-2.42-.63-5-1.5-14.94-5.72-14.94-15.54,0-13.13,7.13-18.88,15.64-17.17.6.12,1.13.21,1.6.26a118.54,118.54,0,0,1,85,67.24h.27a6.19,6.19,0,0,0,11.55-3.92l.33-.27a131.27,131.27,0,0,0-240.85,2.08q-2.22,5.26-4,10.67a129.79,129.79,0,0,0-4,15.42l.41.11c0,.11,0,.22,0,.33a6.1,6.1,0,0,0,11.61,2.65l.5,0a117.26,117.26,0,0,1,3.92-15.27,118.56,118.56,0,0,1,92.85-79.61l0,0c16.34-1,19.81,11.77,18.71,18.12s-4.23,11.88-15.84,14a86.12,86.12,0,0,0-17.06,163.82c.71.3,1.43.57,2.15.85a85.39,85.39,0,0,0,17,4.7c0-.14.08-.27.12-.41a6.26,6.26,0,0,1-1,.1,6.32,6.32,0,0,0,1.33-12.5v-.09a73.26,73.26,0,0,1-57.4-54.83,3.15,3.15,0,0,0,.22-1.44c0-6.36,3-16.19,15.23-16.19,9.74,0,14.57,8,16.12,11.24,0,.05,0,.1,0,.15a41,41,0,0,0,75.06,9.22c7.11-8.75,15.54-10.11,22.32-7.69,7,2.5,12.49,10,7.74,20.48l-.18.42A73.58,73.58,0,0,1,329.79,362a72.7,72.7,0,0,1-13.5,5.19l0,.22a6.3,6.3,0,0,0,3,12.22l.83-.24a85.6,85.6,0,0,0,10.15-3.54c1.39-.59,2.75-1.22,4.1-1.87A86.45,86.45,0,0,0,376.17,330a84.8,84.8,0,0,0,3.67-10.59c4.55-11.63,10.47-14.83,17.75-14.59,7.53.24,18,3.23,14.24,19-.65,2.7-.74,3.76-.45,3.71-.13.53-.27,1.06-.45,1.57a118.4,118.4,0,0,1-229.1-5.18,120.06,120.06,0,0,1-2.27-12.66l-.58.12a6,6,0,0,0,.09-.85,6.12,6.12,0,0,0-12.24,0,6,6,0,0,0,.09.92h-.26A131.15,131.15,0,0,0,280.95,426.92c13.67,2.53,16.3,11.36,15.28,17.31-1.09,6.35-5.13,15.82-17.34,14.91a10,10,0,0,0-2,0,163.52,163.52,0,0,1-9.26-323q6.59-1.21,13.36-1.87l.37,0,1.76-.16a6.31,6.31,0,0,0-1.46-12.46c-4.6.45-11.1,1-15.63,1.8a176.2,176.2,0,0,0-143.37,149.1l-.45,0c0,16.53-12.5,19-18.68,19-5.62,0-12.46-6.36-13.66-14.8C100.08,171,189.12,88.46,297.46,88.46c92.52,0,171,60.23,198.27,143.61q2.2,6.71,3.94,13.61h.12a6.29,6.29,0,0,1-.1-1,6.28,6.28,0,0,0,12.53.73l.52-.18c-1.35-5.62-2.9-11.18-4.69-16.68q-2.91-8.93-6.58-17.65a221.23,221.23,0,0,0-180.73-134l0,0s-18.19-2-18.19-15.17,7-16.62,15.64-17.17l.7-.06,2.48.22c106.83,9.91,194.44,86,221.4,187q1.9,7.1,3.39,14.36h.12a6.26,6.26,0,0,0,12.12.56h0l.91-.06c-1.16-6-2.5-11.95-4.07-17.85A266.64,266.64,0,0,0,52.1,193.52,266.58,266.58,0,0,0,543.23,401a264.29,264.29,0,0,0,20.7-92.61l0,.07c.25-4.91,2.95-6.14,5-6.14s4.72.95,4.81,5.31c-5.41,147.81-126.91,266-276,266-152.58,0-276.26-123.69-276.26-276.26S145.19,21.1,297.77,21.1c133.71,0,245.2,95,270.73,221.19.8,9.22-2.69,18.56-13.69,19.3-10.46.7-15.94-5.18-18-12.24A243.88,243.88,0,0,0,334,55.9c-4.73-.71-9.5-1.25-14.28-1.68a6.4,6.4,0,0,0-1.27-.13,6.29,6.29,0,0,0-6.32,6.25A6.61,6.61,0,0,0,318.49,67q7,.63,14,1.67c93.78,14.2,169.06,84.75,190.26,176,1.19,9.33-4.22,16.91-13.58,16.91a20,20,0,0,1-19.39-15.14v0A198.89,198.89,0,0,0,102.6,256.57q-1.53,7.43-2.49,15h.39c0,.19-.06.38-.06.58a6,6,0,0,0,12.06.72l.33.11q.93-7.22,2.41-14.26A186.17,186.17,0,0,1,278,111.93c15.84,1.87,18.86,11.38,17.78,17.67-1,5.86-3.72,12.68-14,14.22-.69.07-1.39.11-2.08.19l-.79.1a7.93,7.93,0,0,0-1.68.22,153.71,153.71,0,0,0,5.32,305.51l0-.18a6.31,6.31,0,0,0-.72-12.57,6.19,6.19,0,0,1,.67.07V437a140.75,140.75,0,0,1-125.3-123.07v-.13c.22-.12.36-.6.36-1.59,0-6.36,3-16.19,15.23-16.19,9.47,0,14.29,7.56,16,11A108.66,108.66,0,0,0,396.53,340c.17-.39.36-.77.52-1.16a106.62,106.62,0,0,0,4.68-13.55l-.07,0h0a6.26,6.26,0,0,0,.19-1.48,6.31,6.31,0,0,0-12.26-2.14h0l-.14,0a95.77,95.77,0,0,1-64.92,66.75c-1.23.37-2.46.73-3.71,1l-.92.22c-3.13.4-17,1.25-17.33-15-.3-13.13,7.81-15,15.84-18.28a23.64,23.64,0,0,0,2.62-1.23l.44-.18a63.61,63.61,0,0,0,20.19-13.62c.54-.54,1.06-1.1,1.58-1.66A63.83,63.83,0,0,0,352.4,327l-.07-.05a6.25,6.25,0,0,0,.89-3.19,6.31,6.31,0,0,0-12-2.7l-.09-.07a50.76,50.76,0,0,1-93.37-11.44l-.3.1a6,6,0,0,1,.08.81,6.12,6.12,0,0,0-12.24,0,6,6,0,0,0,.29,1.77h0l-.36.07a62.92,62.92,0,0,0,3,8.79q1.18,2.78,2.61,5.43A63.88,63.88,0,0,0,272,354.95q2.74,1.16,5.58,2.05l.48.56a35.53,35.53,0,0,1,5.2.94l.31.07c11.4,3.11,13.62,11.17,12.66,16.72-1.09,6.35-5.13,15.82-17.34,14.91-1.84-.14-2.39-.08-2,.12A95.83,95.83,0,0,1,281.53,202c0-.11-.08-.22-.11-.34.15,0,.29,0,.44,0a6.23,6.23,0,1,0,0-12.45h-.06c0-.08,0-.16,0-.24A108.26,108.26,0,0,0,191,272.42l-.55,0a28.15,28.15,0,0,1-.24,3.67c0,.19-.08.37-.11.56,0-.12.06-.25.09-.37h0c0,.12-.06.25-.09.37-.1.52-.16,1-.25,1.56-2.56,11.35-12.71,13.25-18.08,13.25-6.11,0-13.67-7.51-13.84-17a141,141,0,0,1,267.24-36.68l.17.37c.31.67.6,1.34.89,2,3.85,9.91-1,18.41-9.18,20.78-8.61,2.49-18.43-4.34-22.26-11.6a109.11,109.11,0,0,0-55.57-52.87c-1.54-.65-3.09-1.26-4.65-1.84a106.67,106.67,0,0,0-14.33-4.18c0,.07,0,.14,0,.21a6.24,6.24,0,1,0-1.83,12.19c-.15,0-.29,0-.44,0l-.08.25a95.15,95.15,0,0,1,13,3.87,96.11,96.11,0,0,1,43.87,33.73c3.11,8.09-2,14.79-6.75,18.2-5,3.54-13.82,6-24.12-5.05q-1.09-1.2-2.23-2.36a63.53,63.53,0,0,0-103,19.22l.43.41A6.09,6.09,0,0,0,249.79,276l.48.06a50.69,50.69,0,0,1,46.48-30.43c15.84,0,29.69,7.5,39.29,18.63,7,8.16,6.63,10,20.28,10H459.19c12.42,0,12.78-1.13,11.36-10a156.81,156.81,0,0,0-10.85-36A176.26,176.26,0,0,0,334,124.41c-4.53-1-9.63-1.65-14.34-2.23a6.39,6.39,0,0,0-.78-.12s-.17,0-.33,0-.22,0-.34,0a6.22,6.22,0,0,0-.94,12.39c4.93.6,9.76,1.63,14.54,2.66A163.73,163.73,0,0,1,456.27,258.69c.36,4.17-1.63,5.32-3,5.59h-2a5.82,5.82,0,0,1-4.66-3.44,153.7,153.7,0,0,0-127-116.18c-3-.57-17.47-3.93-17.47-15.71,0-11.31,5.22-16.67,12.17-17.25q2.57.23,5.13.53l1.16.13c81,10.1,145.38,72.32,159.94,151.92,2.05,11.23,14.37,10,14.37,10h78.14c9.45,0,12.7-3.5,11.89-10a297.71,297.71,0,0,0-20.84-79.44,290.19,290.19,0,1,0,22.66,117.47c0-1.65.06-3.3.06-5C586.83,292.4,582.63,292.35,574,292.35Zm-249.79,10a28.19,28.19,0,1,1-29.27-34.12c.57,0,1.15-.09,1.73-.09a28.17,28.17,0,0,1,27.55,34.21ZM279.69,121.86h0ZM318.21,426.4a8,8,0,0,0,3.71-.87A131,131,0,0,0,427.81,307.26c.59-3.7,2.49-4.69,4-5h2.67a3.71,3.71,0,0,1,3.33,3.43A140.54,140.54,0,0,1,315.91,436.48c0,.08,0,.16,0,.24a6.32,6.32,0,0,0,2.49,12.13,6.26,6.26,0,0,0,3.3-1h0l.37.62q6.17-1,12.23-2.5A153.63,153.63,0,0,0,450.52,307.63c-.12-3.35,2.11-5.38,4.81-5.32s5,.87,5.06,5.23A163.55,163.55,0,0,1,320.62,458.72c-1.69-.22-18-2.69-18-15.15C302.57,430.44,309.55,427,318.21,426.4ZM45.16,272.52c.11-1.15.24-2.29.36-3.43C58.81,148.79,156.2,53.85,277.61,44.35l0,0c16.2,1.75,19.69,11.61,18.6,18s-5.25,12.6-17.4,14.05c-.34,0-.64.09-.89.13A221.12,221.12,0,0,0,77.42,272.46h-.11c0,.39,0,.77,0,1.14,0,.14,0,.29-.05.43l0,.16c-.09.89-.16,1.79-.24,2.68-2,12.57-12.76,14.62-18.34,14.62-5.78,0-12.88-6.73-13.77-15.54C45,274.82,45,273.66,45.16,272.52ZM549.76,324c-.1,1.5-.16,2.7-.21,3.68C534.51,453.47,427.48,551,297.67,551,162.56,551,52.13,445.36,44.4,312.19c0-6.36,3-16.19,15.23-16.19s16.71,12.58,16.71,12.58c0,.67.08,1.33.12,2A221.22,221.22,0,0,0,266.05,516.27q7.67,1.09,15.45,1.63v0h.13a6.32,6.32,0,0,0,0-12.65h-.13v-.17q-7.08-.54-14-1.53C171,489.63,95.8,409.67,89.31,310.94,89.7,304.63,93.09,296,104.5,296c12.19,0,16.71,12.58,16.71,12.58l.1-.39A176.36,176.36,0,0,0,459.7,365.51a174.5,174.5,0,0,0,12.42-46h0c2.2-13.45,8.9-15.77,16.41-15.1s16.1,1,15.64,19.64c0,.5,0,1,0,1.41a208.75,208.75,0,0,1-172,177.35q-6.77,1.14-13.69,1.82v.2h0l-.28,0a6.32,6.32,0,0,0,0,12.65l.28,0h0v.08q7.75-.73,15.39-2A221.23,221.23,0,0,0,517.48,322l-.09,2c2.11-15.31,10.6-16.29,16.19-16.29S550.9,306.32,549.76,324Z" transform="translate(0.02)"/></g></svg>